<svg xmlns="http://www.w3.org/2000/svg" viewBox="0 0 199.12326188797044 199.12326188797044" width="597.3697856639113" height="597.3697856639113">
  <title>Draw</title>
  <rect width="100%" height="100%" fill="#d0bfff"/>
  <g stroke-linecap="round">
    <g transform="translate(85.2853168668903 151.31930815830265)">
      <path d="M-2.53 2.47 L-20.69 -72.92 L19.23 -115.45 L48.99 -74.47 L28.69 -0.95 L-1.91 -0.16" fill="#ffffff"/>
      <path d="M3.81 2.48 C-7.86 -29.05, -10.76 -57.87, -18.6 -77.62 M-1.32 -1.43 C-4.79 -24.17, -10.52 -51.68, -19.02 -74.98 M-19.95 -74.51 C-14.11 -83.85, -0.44 -96.13, 13.77 -117.77 M-18.65 -73.69 C-6.3 -89.42, 6.6 -106.93, 16.07 -119.33 M15.87 -120.32 C22.9 -106.69, 37.87 -92.73, 50.57 -77.95 M18.79 -119.96 C28.41 -100.43, 41.33 -86.27, 52.37 -73.74 M55.76 -77.23 C47.32 -55.34, 38.26 -40.9, 30.95 -3.16 M53 -77 C46.42 -60.04, 43.44 -39.93, 33.5 -2.41 M34.08 -1.99 C19.44 -3.56, 10.91 3.14, -3.35 -3.09 M31.26 -0.4 C22.88 1.45, 13.61 -1.34, -1.55 1.08 M0 0 C0 0, 0 0, 0 0 M0 0 C0 0, 0 0, 0 0" stroke="#6741d9" stroke-width="4" fill="none"/>
    </g>
    <g transform="translate(103.99026620137101 38.86861605027843)">
      <path d="M0 0 C0 0, 0 0, 0 0 M0 0 C0 0, 0 0, 0 0 M-0.26 6.4 C0.72 5.27, 1.7 4.14, 2.36 3.38 M-0.26 6.4 C0.5 5.52, 1.27 4.64, 2.36 3.38 M-0.52 12.8 C1.45 10.52, 3.43 8.25, 5.38 6 M-0.52 12.8 C0.75 11.33, 2.03 9.86, 5.38 6 M-0.78 19.19 C1.14 16.99, 3.05 14.78, 7.74 9.38 M-0.78 19.19 C2.08 15.9, 4.95 12.6, 7.74 9.38 M-0.39 24.84 C1.77 22.35, 3.93 19.87, 10.11 12.76 M-0.39 24.84 C3.35 20.53, 7.1 16.22, 10.11 12.76 M-0.65 31.23 C2.66 27.43, 5.97 23.62, 12.47 16.14 M-0.65 31.23 C3.77 26.15, 8.19 21.06, 12.47 16.14 M-0.91 37.63 C3.86 32.14, 8.63 26.65, 15.49 18.76 M-0.91 37.63 C2.48 33.73, 5.87 29.83, 15.49 18.76 M-1.17 44.03 C3.25 38.94, 7.68 33.85, 17.85 22.14 M-1.17 44.03 C6.07 35.69, 13.32 27.35, 17.85 22.14 M-1.44 50.43 C5.22 42.77, 11.87 35.12, 20.21 25.52 M-1.44 50.43 C4.54 43.55, 10.51 36.68, 20.21 25.52 M-1.7 56.83 C5.75 48.26, 13.19 39.7, 23.23 28.15 M-1.7 56.83 C6.41 47.5, 14.51 38.18, 23.23 28.15 M-1.3 62.47 C6.16 53.89, 13.61 45.31, 25.6 31.53 M-1.3 62.47 C6.61 53.37, 14.52 44.27, 25.6 31.53 M-1.56 68.87 C5.43 60.82, 12.43 52.77, 27.96 34.9 M-1.56 68.87 C7.2 58.78, 15.97 48.69, 27.96 34.9 M-1.83 75.26 C5.64 66.68, 13.1 58.1, 30.98 37.53 M-1.83 75.26 C8.39 63.52, 18.6 51.77, 30.98 37.53 M-2.09 81.66 C9.67 68.14, 21.42 54.61, 28.09 46.95 M-2.09 81.66 C9.81 67.97, 21.71 54.29, 28.09 46.95 M-2.35 88.06 C5.81 78.67, 13.98 69.28, 25.86 55.61 M-2.35 88.06 C8.88 75.15, 20.1 62.23, 25.86 55.61 M-2.61 94.46 C6.65 83.81, 15.9 73.16, 23.63 64.27 M-2.61 94.46 C7.5 82.83, 17.6 71.21, 23.63 64.27 M-2.22 100.1 C7.22 89.25, 16.65 78.4, 21.4 72.93 M-2.22 100.1 C5.93 90.73, 14.07 81.37, 21.4 72.93 M-2.48 106.5 C3.35 99.8, 9.17 93.1, 18.52 82.35 M-2.48 106.5 C1.89 101.48, 6.25 96.46, 18.52 82.35 M-0.77 110.63 C6.02 102.82, 12.81 95.01, 16.29 91.01 M-0.77 110.63 C5.42 103.51, 11.61 96.39, 16.29 91.01 M4.22 110.99 C7.85 106.81, 11.49 102.63, 14.06 99.67 M4.22 110.99 C6.89 107.92, 9.56 104.85, 14.06 99.67 M9.2 111.35 C10.07 110.35, 10.94 109.35, 11.83 108.33 M9.2 111.35 C10.21 110.19, 11.22 109.04, 11.83 108.33" stroke="#868e96" stroke-width="0.5" fill="none"/>
      <path d="M0 0 C-0.85 34.91, -1.7 69.82, -2.68 110.26 M0 0 C-0.75 30.96, -1.51 61.92, -2.68 110.26 M-2.68 110.26 C1.27 110.43, 5.23 110.6, 10.55 110.83 M-2.68 110.26 C2.1 110.47, 6.89 110.67, 10.55 110.83 M10.55 110.83 C15.73 91.76, 20.9 72.69, 30.45 37.52 M10.55 110.83 C18.01 83.35, 25.46 55.88, 30.45 37.52 M30.45 37.52 C21.72 26.76, 12.99 16.01, 0 0 M30.45 37.52 C20.48 25.24, 10.52 12.96, 0 0 M0 0 C0 0, 0 0, 0 0 M0 0 C0 0, 0 0, 0 0" stroke="#ced4da" stroke-width="1" fill="none"/>
    </g>
    <g transform="translate(91.84946428782905 73.63693794948017)">
      <path d="M11.85 1.07 C14.04 1.29, 18.02 1.48, 19.63 3.14 C21.24 4.8, 21.76 8.68, 21.5 11.05 C21.25 13.42, 19.58 15.76, 18.09 17.35 C16.61 18.95, 14.8 20.2, 12.6 20.62 C10.4 21.04, 6.71 20.75, 4.89 19.87 C3.08 19, 2.58 17.47, 1.72 15.36 C0.87 13.25, -0.63 9.41, -0.23 7.21 C0.17 5.01, 1.84 3.21, 4.13 2.17 C6.41 1.12, 12.11 1.08, 13.49 0.95 C14.86 0.82, 12.45 1.21, 12.39 1.38 M11.99 1.61 C14.4 1.85, 19.09 1.58, 20.45 3.28 C21.81 4.97, 20.45 9.07, 20.17 11.78 C19.9 14.49, 20.31 17.92, 18.8 19.55 C17.28 21.18, 13.36 21.37, 11.1 21.54 C8.83 21.71, 6.8 22.09, 5.19 20.55 C3.58 19.02, 2.35 14.59, 1.45 12.34 C0.56 10.1, -0.98 9.06, -0.19 7.08 C0.6 5.1, 3.75 1.64, 6.21 0.44 C8.67 -0.75, 13.56 -0.19, 14.56 -0.11 C15.56 -0.02, 12.56 0.84, 12.21 0.95" fill="#d0bfff"/>
      <path d="M9.31 -0.66 C11.35 -1.16, 13.7 -0.46, 15.49 0.85 C17.28 2.16, 19.08 4.89, 20.05 7.19 C21.02 9.49, 22.08 12.61, 21.3 14.67 C20.52 16.73, 17.46 18.57, 15.38 19.55 C13.3 20.52, 10.86 20.8, 8.8 20.53 C6.75 20.26, 4.59 19.55, 3.03 17.93 C1.48 16.3, -0.31 13.11, -0.53 10.79 C-0.75 8.48, -0.31 5.89, 1.71 4.03 C3.74 2.16, 9.88 0.17, 11.62 -0.39 C13.35 -0.95, 12.12 0.39, 12.12 0.66 M6.74 1.21 C8.78 0.12, 12.13 -0.54, 14.21 0.12 C16.3 0.79, 18.13 3.12, 19.25 5.19 C20.36 7.27, 21.1 10.32, 20.91 12.58 C20.71 14.85, 19.97 17.53, 18.07 18.77 C16.17 20.01, 11.95 19.95, 9.51 20 C7.07 20.06, 4.88 20.46, 3.41 19.08 C1.93 17.69, 1.09 13.83, 0.65 11.67 C0.21 9.52, -0.29 8.27, 0.76 6.16 C1.81 4.05, 5.63 0.13, 6.95 -0.97 C8.27 -2.06, 8.75 -0.94, 8.68 -0.4" stroke="#6741d9" stroke-width="4" fill="none"/>
    </g>
    <g transform="translate(102.88719281319823 31.389205621692327)">
      <path d="M-0.38 -1.22 C0.59 9.81, -1.79 21.52, -2.8 40.73 M-0.59 0.11 C-1.24 15.38, -0.59 29.01, -1.2 39.88" stroke="#6741d9" stroke-width="2" fill="none"/>
    </g>
  </g>
</svg>
